<svg xmlns="http://www.w3.org/2000/svg" fill="none" width="10" height="10" viewBox="0 0 10000 10000">
    <rect fill="#eaecf2" width="10000" height="10000" rx="2000" />
    <g fill="#27497d" clip-path="url(#a)">
        <path
            d="M3641 5556c-48 0-95 19-129 53s-53 80-53 129v910c0 48 19 94 53 129s80 53 129 53H6360c48 0 95-19 129-53s53-80 53-129v-910c0-24-5-48-14-70s-23-42-39-59-37-30-59-39-46-14-70-14H3641" />
        <path
            d="M3155 6800v-485h-967c-12 0-23 3-33 10s-18 16-22 27-6 23-4 35 8 22 16 31l509 535-509 535c-8 9-14 19-16 31s-1 24 4 35 12 20 22 27 22 10 33 10h1520c56 0 111-11 163-32s98-53 138-92 71-86 92-138 32-107 32-163h-614c-97 0-189-38-257-107s-107-161-107-257zm4192 152 509-535c8-9 14-19 16-31s1-24-4-35-12-20-22-27-22-10-33-10h-967V6800c0 48-9 95-28 139s-45 84-79 118-74 61-118 79-92 28-139 28h-614c0 113 45 221 124 300s188 124 300 124h1520c12 0 23-3 33-10s18-16 22-27 6-23 4-35-8-23-16-31l-509-535zM4231 4528c106 89 228 159 359 204 43 128 64 262 62 397a1480 1480 0 01-8 158h646a1470 1470 0 01-8-158c-2-127 16-253 53-374 160-43 308-120 435-227a1860 1860 0 00 1703-1559 150 150 0 00-37-116 150 150 0 00-111-50h-869l10-174a150 150 0 00-42-110 150 150 0 00-108-46H3684a150 150 0 00-108 46 150 150 0 00-42 110l10 174h-869a150 150 0 00-111 50 150 150 0 00-37 116A1860 1860 0 00 4230 4528zm2190-1427h720c-68 256-202 490-390 678s-422 321-679 388c200-331 300-735 349-1066zm-1976 113 327-20 120-304c9-22 23-40 43-54s42-20 66-20 46 7 66 20 34 32 43 54l120 304 327 20c23 1 46 10 64 24s32 34 39 56 8 46 1 69-20 42-38 57l-252 208 82 317c6 23 5 46-3 68s-22 41-41 55-42 21-65 22-46-6-66-18L5000 3898l-276 176c-20 13-43 19-66 18s-46-8-65-22-33-33-41-55-9-46-3-68l82-317-252-208c-18-15-31-35-38-57s-6-46 1-69 21-42 39-56 41-23 64-24zm-866-113c49 330 148 734 348 1065A1510 1510 0 01 2860 3101h719" />
    </g>
    <defs>
        <clipPath id="a">
            <path d="M0 0h6000v6000H0" fill="#fff" transform="translate( 2000 2000)" />
        </clipPath>
    </defs>
</svg>