<svg xmlns="http://www.w3.org/2000/svg" width="46" height="45" viewBox="0 0 46 45" fill="none">
    <rect width="45.4167" height="45" rx="8.18182" fill="#3082F7" fill-opacity="0.1" />
    <path
        d="M14.4871 32.9516L24.6571 29.3178C26.2096 28.7666 26.6596 26.7753 25.4896 25.6053L20.3934 20.5091C19.2234 19.3391 17.2434 19.7891 16.6809 21.3416L13.0471 31.5116C12.7321 32.4116 13.5871 33.2666 14.4871 32.9516ZM26.9409 22.5003L32.6334 16.8078C32.764 16.6768 32.9192 16.5729 33.09 16.5021C33.2609 16.4312 33.444 16.3947 33.629 16.3947C33.814 16.3947 33.9971 16.4312 34.168 16.5021C34.3388 16.5729 34.494 16.6768 34.6246 16.8078L34.6921 16.8753C35.0184 17.2016 35.5584 17.2016 35.8846 16.8753C36.2109 16.5491 36.2109 16.0091 35.8846 15.6828L35.8171 15.6153C35.2357 15.037 34.449 14.7124 33.629 14.7124C32.809 14.7124 32.0223 15.037 31.4409 15.6153L25.7484 21.3078C25.4221 21.6341 25.4221 22.1741 25.7484 22.5003C26.0746 22.8266 26.6146 22.8266 26.9409 22.5003ZM21.3159 16.7403L21.2484 16.8078C20.9221 17.1341 20.9221 17.6741 21.2484 18.0003C21.5746 18.3266 22.1146 18.3266 22.4409 18.0003L22.5084 17.9328C23.0867 17.3514 23.4113 16.5647 23.4113 15.7447C23.4113 14.9246 23.0867 14.138 22.5084 13.5566L22.4521 13.5003C22.1146 13.1628 21.5746 13.1628 21.2484 13.5003C20.9221 13.8266 20.9221 14.3666 21.2484 14.6928L21.3159 14.7603C21.8559 15.3003 21.8559 16.2003 21.3159 16.7403ZM29.1909 22.3653L27.9984 23.5578C27.6721 23.8841 27.6721 24.4241 27.9984 24.7503C28.3246 25.0766 28.8646 25.0766 29.1909 24.7503L30.3834 23.5578C30.514 23.4268 30.6692 23.3229 30.84 23.2521C31.0109 23.1812 31.194 23.1447 31.379 23.1447C31.564 23.1447 31.7471 23.1812 31.918 23.2521C32.0888 23.3229 32.244 23.4268 32.3746 23.5578L33.5896 24.7728C33.9159 25.0991 34.4559 25.0991 34.7821 24.7728C35.1084 24.4466 35.1084 23.9066 34.7821 23.5803L33.5671 22.3653C32.9857 21.787 32.199 21.4624 31.379 21.4624C30.559 21.4624 29.7723 21.787 29.1909 22.3653ZM26.9409 15.6153L23.4984 19.0578C23.1721 19.3841 23.1721 19.9241 23.4984 20.2503C23.8246 20.5766 24.3646 20.5766 24.6909 20.2503L28.1334 16.8078C28.7117 16.2264 29.0363 15.4397 29.0363 14.6197C29.0363 13.7996 28.7117 13.013 28.1334 12.4316L26.9409 11.2391C26.7821 11.0821 26.5679 10.9941 26.3446 10.9941C26.1214 10.9941 25.9072 11.0821 25.7484 11.2391C25.4221 11.5653 25.4221 12.1053 25.7484 12.4316L26.9409 13.6241C27.4809 14.1753 27.4809 15.0753 26.9409 15.6153Z"
        fill="#3082F7" />
</svg>