<svg xmlns="http://www.w3.org/2000/svg" width="46" height="45" viewBox="0 0 46 45" fill="none">
    <rect width="45.4167" height="45" rx="8.18182" fill="black" fill-opacity="0.1" />
    <path
        d="M32.0984 31.9705V28.7205C32.0984 27.8105 31.9684 26.9005 31.4484 25.9905C30.9284 25.0805 30.2784 24.3005 29.3684 23.7805C28.4584 23.1305 26.5084 23.0005 25.5984 23.0005L23.5184 25.2105L24.2984 26.9005V30.8005L22.9984 32.2305L21.6984 30.8005V26.9005L22.6084 25.2105L20.3984 23.0005C19.3584 23.0005 17.4084 23.1305 16.4984 23.7805C15.5884 24.3005 15.0684 25.0805 14.5484 25.9905C14.0284 26.9005 13.8984 27.6805 13.8984 28.7205V31.9705C13.8984 31.9705 17.2784 33.4005 22.9984 33.4005C28.7184 33.4005 32.0984 31.9705 32.0984 31.9705ZM22.9984 12.7305C20.5284 12.7305 19.0984 15.0705 19.4884 17.6705C19.8784 20.2705 21.1784 22.0905 22.9984 22.0905C24.8184 22.0905 26.1184 20.2705 26.5084 17.6705C26.8984 14.9405 25.4684 12.7305 22.9984 12.7305Z"
        fill="black" />
</svg>