<svg xmlns="http://www.w3.org/2000/svg" width="55" height="54" viewBox="0 0 55 54" fill="none">
    <rect x="0.25" width="54.5" height="54" rx="9.81818" fill="#EF5DA8" fill-opacity="0.1" />
    <g clip-path="url(#clip0_11214_61223)">
        <path
            d="M20.9125 19.125C20.9125 20.5734 19.6967 21.75 18.2 21.75C16.7018 21.75 15.4875 20.5734 15.4875 19.125C15.4875 17.6752 16.7018 16.5 18.2 16.5C19.6967 16.5 20.9125 17.6752 20.9125 19.125ZM22.0944 24.2016C20.6558 25.4391 19.75 27.2437 19.75 29.25C19.75 30.8578 20.2877 32.3344 21.3 33.4922V34.5C21.3 35.3297 20.6073 36 19.75 36H16.65C15.7941 36 15.1 35.3297 15.1 34.5V33.2438C13.2671 32.4 12 30.5953 12 28.5C12 25.5984 14.4287 23.25 17.425 23.25H18.975C20.0939 23.25 21.2128 23.6016 22.0944 24.2016ZM15.1 26.5172C14.6176 27.0422 14.325 27.7406 14.325 28.5C14.325 29.2594 14.6176 29.9578 15.1 30.4828V26.5172ZM33.7 34.5V33.4922C34.6687 32.3344 35.25 30.8578 35.25 29.25C35.25 27.2437 34.3442 25.4391 32.9056 24.2016C33.7872 23.6016 34.8625 23.25 36.025 23.25H37.575C40.5733 23.25 43 25.5984 43 28.5C43 30.5953 41.7309 32.4 39.9 33.2438V34.5C39.9 35.3297 39.2073 36 38.35 36H35.25C34.3927 36 33.7 35.3297 33.7 34.5ZM39.9 30.4828C40.3408 29.9578 40.675 29.2594 40.675 28.5C40.675 27.7406 40.3408 27.0422 39.9 26.5172V30.4828ZM39.5125 19.125C39.5125 20.5734 38.2967 21.75 36.8 21.75C35.3033 21.75 34.0875 20.5734 34.0875 19.125C34.0875 17.6752 35.3033 16.5 36.8 16.5C38.2967 16.5 39.5125 17.6752 39.5125 19.125ZM24.4 19.5C24.4 17.843 25.7902 16.5 27.5 16.5C29.2098 16.5 30.6 17.843 30.6 19.5C30.6 21.1547 29.2098 22.5 27.5 22.5C25.7902 22.5 24.4 21.1547 24.4 19.5ZM33.7 29.25C33.7 31.3453 32.4309 33.15 30.6 33.9938V36C30.6 36.8297 29.9073 37.5 29.05 37.5H25.95C25.0927 37.5 24.4 36.8297 24.4 36V33.9938C22.5691 33.15 21.3 31.3453 21.3 29.25C21.3 26.3484 23.7267 24 26.725 24H28.275C31.2733 24 33.7 26.3484 33.7 29.25ZM24.4 31.2328V27.2672C23.9156 27.7922 23.625 28.4906 23.625 29.25C23.625 30.0094 23.9156 30.7078 24.4 31.2328ZM30.6 27.2672V31.2328C31.0408 30.7031 31.375 30.0094 31.375 29.25C31.375 28.4906 31.0408 27.7922 30.6 27.2672Z"
            fill="#EF5DA8" />
    </g>
    <defs>
        <clipPath id="clip0_11214_61223">
            <rect width="31" height="24" fill="white" transform="translate(12 15)" />
        </clipPath>
    </defs>
</svg>